<svg xmlns="http://www.w3.org/2000/svg" viewBox="0 0 464.26 124.65"><defs><style>.cls-1{fill:#0049b8;}</style></defs><title>logo color</title><g id="Layer_2" data-name="Layer 2"><g id="Layer_1-2" data-name="Layer 1"><path class="cls-1" d="M206.88,74.78H193V68h35.2v6.81H214.49v40.36h-7.61Z"/><path class="cls-1" d="M256.69,67.47c16.28,0,23.7,11.65,23.9,23.43.21,12-7.15,24.24-23.9,24.24h-18V67.47Zm-10.48,40.31h10.48c11.65,0,16.55-8.58,16.35-17-.21-8-5.18-16.07-16.35-16.07H246.21Z"/><path class="cls-1" d="M299,100.31c.61,5.12,4.72,8.36,10.85,8.36,3.44,0,7.55-1.21,9.64-3.57l4.51,4.38c-3.43,3.84-9.16,5.66-14.28,5.66-10.92,0-17.92-6.94-17.92-17.59,0-10.1,7.07-17.31,17.45-17.31,10.71,0,18,6.6,16.71,20.07Zm20.28-5.86c-.47-5.32-4.17-8-9.83-8-5.12,0-9.23,2.7-10.31,8Z"/><path class="cls-1" d="M361.6,115.14V97.35c0-5.73-3.24-9.57-9-9.57s-9.29,4.52-9.29,10v17.39H336.4V81.85h6.33l.4,4.85a14.46,14.46,0,0,1,11.19-5.32c8,0,14.28,5.66,14.28,15.9v17.86Z"/><path class="cls-1" d="M392.73,71.94v9.64h9.7v6h-9.77v15.84c0,3.5,1.55,5.45,4.79,5.45a9.12,9.12,0,0,0,4.24-1.14l2,5.93a15.92,15.92,0,0,1-6.67,1.48c-7.27.2-11.32-3.84-11.32-11.72V87.57h-6.4v-6h6.4v-8.9Z"/><path class="cls-1" d="M439,81h6.74v33.22h-6.6l-.34-5.39c-2.15,4.31-7.41,6.27-11.45,6.27-9.7,0-17-6.2-17-17.52,0-11.12,7.68-17.32,17.18-17.32,4.79,0,9.23,2.23,11.32,6ZM417.23,97.62c0,6.8,4.85,11,10.78,11,14.35,0,14.35-22,0-22C422.08,86.64,417.23,90.88,417.23,97.62Z"/><path class="cls-1" d="M464.26,68v47.1h-6.94V68Z"/><path class="cls-1" d="M110.51,0h-75C20.14,0,3.71,10.43,0,25.31l52.29.12L26,124.46h15.6C45.86,111,56.39,100.63,70.47,98A23.74,23.74,0,0,1,75,97.55H82.9L101.46,24.9h2.75l15.25-.17a21.73,21.73,0,0,0,5.67-.79,44.67,44.67,0,0,0,14.28-7A39.36,39.36,0,0,0,151.79,0Z"/><path class="cls-1" d="M153.9.08s-3.18,8.73-8.53,14.09c-10.47,10.47-21.24,12.1-21.24,12.1a14.11,14.11,0,0,1,4.72,12.16L116,90c-1.06,3.94-7.73,9.27-12.39,9.15l-18.25,0h0l-10.47.1c-14.24,0-28,13.28-31.46,25.4h36.4l50.34-.31c16-1.22,28.65-13.22,32.52-25.27h0l14.2-58.71c1-5.16.6-19-8.34-29.37C160.59,1.68,153.9.08,153.9.08Z"/></g></g></svg>