<svg width="403" height="273" viewBox="0 0 403 273" fill="none" xmlns="http://www.w3.org/2000/svg">
<g opacity="0.6" clip-path="url(#clip0)">
<path opacity="0.2" d="M382.294 219.611C379.593 173.621 334.843 171.252 319.857 169.284C304.857 167.317 307.517 103.757 264.041 105.073C254.221 105.073 245.218 108.039 238.349 112.916C233.335 116.477 226.562 112.764 226.562 106.417V76.8755C226.562 47.874 204.734 24.1379 178.059 24.1379C151.383 24.1379 129.555 47.874 129.555 76.8755C129.555 94.2377 115.026 107.762 98.6136 105.517C96.4945 105.226 94.3339 105.073 92.1179 105.073C70.7192 105.073 53.2264 119.152 53.2264 136.361V141.932C53.2264 143.511 52.0076 144.786 50.4979 144.786H50.4702C35.5951 144.786 23.4207 154.125 23.4207 165.557V219.583L302.932 219.611H382.294Z" fill="#087AE2"/>
<path opacity="0.2" d="M107.575 99.4477C107.575 99.4477 94.9156 94.0575 102.409 78.7323C102.409 78.7323 116.48 87.8914 107.575 99.4477Z" fill="#087AE2"/>
<path d="M271.326 0H120.829V219.666H271.326V0Z" fill="#699FF0"/>
<path d="M261.755 10.2676H130.414V206.835H261.755V10.2676Z" fill="#DCE1F1"/>
<path d="M232.199 0H159.97V13.0112H232.199V0Z" fill="#AFCDFB"/>
<path d="M161.937 100.916H140.441V79.4113H161.937V100.916ZM142.242 99.1152H160.122V81.2126H142.242V99.1152Z" fill="#CBD0E6"/>
<path d="M251.035 86.9076H177.754C177.034 86.9076 176.438 86.3118 176.438 85.5913C176.438 84.8707 177.034 84.2749 177.754 84.2749H251.035C251.756 84.2749 252.351 84.8707 252.351 85.5913C252.351 86.3118 251.756 86.9076 251.035 86.9076Z" fill="#CBD0E6"/>
<path d="M251.035 91.4802H177.754C177.034 91.4802 176.438 90.8844 176.438 90.1639C176.438 89.4433 177.034 88.8475 177.754 88.8475H251.035C251.756 88.8475 252.351 89.4433 252.351 90.1639C252.351 90.8844 251.756 91.4802 251.035 91.4802Z" fill="#CBD0E6"/>
<path d="M226.299 96.0667H177.754C177.034 96.0667 176.438 95.4709 176.438 94.7504C176.438 94.0298 177.034 93.434 177.754 93.434H226.299C227.019 93.434 227.615 94.0298 227.615 94.7504C227.615 95.4709 227.019 96.0667 226.299 96.0667Z" fill="#CBD0E6"/>
<path d="M145.289 83.5128C145.289 83.5128 148.793 91.2031 150.22 96.0529C150.22 96.0529 156.147 78.9679 161.951 74.5754C161.951 74.5754 152.034 82.2796 149.901 87.448L145.289 83.5128Z" fill="#007BFF"/>
<path d="M161.937 55.4119H140.441V33.9067H161.937V55.4119ZM142.242 53.6106H160.122V35.7081H142.242V53.6106Z" fill="#CBD0E6"/>
<path d="M251.035 41.4031H177.754C177.034 41.4031 176.438 40.8072 176.438 40.0867C176.438 39.3662 177.034 38.7703 177.754 38.7703H251.035C251.756 38.7703 252.351 39.3662 252.351 40.0867C252.351 40.8072 251.756 41.4031 251.035 41.4031Z" fill="#CBD0E6"/>
<path d="M251.035 45.9757H177.754C177.034 45.9757 176.438 45.3799 176.438 44.6593C176.438 43.9388 177.034 43.3429 177.754 43.3429H251.035C251.756 43.3429 252.351 43.9388 252.351 44.6593C252.351 45.3799 251.756 45.9757 251.035 45.9757Z" fill="#CBD0E6"/>
<path d="M226.299 50.5622H177.754C177.034 50.5622 176.438 49.9663 176.438 49.2458C176.438 48.5253 177.034 47.9294 177.754 47.9294H226.299C227.019 47.9294 227.615 48.5253 227.615 49.2458C227.615 49.9663 227.019 50.5622 226.299 50.5622Z" fill="#CBD0E6"/>
<path d="M145.289 38.0082C145.289 38.0082 148.793 45.6986 150.22 50.5483C150.22 50.5483 156.147 33.4633 161.951 29.0708C161.951 29.0708 152.034 36.775 149.901 41.9435L145.289 38.0082Z" fill="#007BFF"/>
<path d="M251.035 129.114H177.754C177.034 129.114 176.438 128.519 176.438 127.798C176.438 127.077 177.034 126.482 177.754 126.482H251.035C251.756 126.482 252.351 127.077 252.351 127.798C252.351 128.519 251.756 129.114 251.035 129.114Z" fill="#CBD0E6"/>
<path d="M251.035 133.701H177.754C177.034 133.701 176.438 133.105 176.438 132.384C176.438 131.664 177.034 131.068 177.754 131.068H251.035C251.756 131.068 252.351 131.664 252.351 132.384C252.351 133.105 251.756 133.701 251.035 133.701Z" fill="#CBD0E6"/>
<path d="M226.299 138.273H177.754C177.034 138.273 176.438 137.678 176.438 136.957C176.438 136.237 177.034 135.641 177.754 135.641H226.299C227.019 135.641 227.615 136.237 227.615 136.957C227.615 137.678 227.019 138.273 226.299 138.273Z" fill="#CBD0E6"/>
<path d="M161.937 146.185H140.441V124.68H161.937V146.185ZM142.242 144.384H160.122V126.482H142.242V144.384Z" fill="#CBD0E6"/>
<path d="M145.289 129.253C145.289 129.253 148.793 136.943 150.22 141.793C150.22 141.793 156.147 124.708 161.951 120.315C161.951 120.315 152.034 128.02 149.901 133.188L145.289 129.253Z" fill="#007BFF"/>
<path d="M161.937 191.69H140.441V170.185H161.937V191.69ZM142.242 189.889H160.122V172H142.242V189.889Z" fill="#CBD0E6"/>
<path d="M251.035 174.619H177.754C177.034 174.619 176.438 174.023 176.438 173.303C176.438 172.582 177.034 171.986 177.754 171.986H251.035C251.756 171.986 252.351 172.582 252.351 173.303C252.351 174.023 251.756 174.619 251.035 174.619Z" fill="#CBD0E6"/>
<path d="M251.035 179.205H177.754C177.034 179.205 176.438 178.61 176.438 177.889C176.438 177.168 177.034 176.573 177.754 176.573H251.035C251.756 176.573 252.351 177.168 252.351 177.889C252.351 178.61 251.756 179.205 251.035 179.205Z" fill="#CBD0E6"/>
<path d="M226.299 183.778H177.754C177.034 183.778 176.438 183.182 176.438 182.462C176.438 181.741 177.034 181.145 177.754 181.145H226.299C227.019 181.145 227.615 181.741 227.615 182.462C227.615 183.182 227.019 183.778 226.299 183.778Z" fill="#CBD0E6"/>
<path d="M145.289 174.757C145.289 174.757 148.793 182.448 150.22 187.298C150.22 187.298 156.147 170.213 161.951 165.82C161.951 165.82 152.034 173.524 149.901 178.693L145.289 174.757Z" fill="#007BFF"/>
<path d="M76.384 215.301L77.589 219.68H89.5555C89.5555 219.68 86.4946 213.777 76.384 215.301Z" fill="#272253"/>
<path d="M51.1489 215.301L52.3538 219.68H64.3204C64.3204 219.68 61.2595 213.777 51.1489 215.301Z" fill="#272253"/>
<path d="M55.8302 136.763C55.8302 136.763 47.811 193.782 50.3317 216.299H60.8579L71.8688 142.001L55.8302 136.763Z" fill="#35488B"/>
<path d="M77.0904 141.571L86.9933 216.299H75.83C75.83 216.299 50.7195 147.072 55.8303 136.763L77.0904 141.571Z" fill="#35488B"/>
<path d="M209.762 88.8475C203.252 65.6241 179.166 52.0725 155.954 58.5712C133.779 64.7789 120.428 87.0462 124.943 109.272L42.4509 132.398C41.7169 132.606 41.3014 133.368 41.4953 134.089L42.2293 136.708C42.4371 137.442 43.1988 137.858 43.9191 137.664L126.356 114.565C133.71 136.458 157.02 148.984 179.499 142.68C202.712 136.167 216.257 112.071 209.762 88.8475ZM178.488 138.62C157.505 144.495 135.718 132.246 129.846 111.253C123.973 90.2609 136.217 68.4647 157.2 62.5896C178.183 56.7144 199.97 68.9635 205.842 89.956C211.715 110.949 199.471 132.731 178.488 138.62Z" fill="#373482"/>
<path d="M67.3952 146.809C72.8106 146.809 74.9297 142.694 74.9297 142.694C74.902 142.735 72.5752 146.615 67.2013 146.518V146.809C67.2567 146.809 67.3259 146.809 67.3952 146.809Z" fill="#272253"/>
<path d="M81.6609 214.151C79.3618 207.805 77.0488 200.239 75.0821 192.314C74.7774 191.094 74.4865 189.847 74.1957 188.6C73.8771 187.214 73.5585 185.829 73.2538 184.443C73.1569 183.972 73.1984 183.404 73.2538 182.863C73.2954 182.351 73.3508 181.838 73.2538 181.422C72.1458 176.185 71.3979 171.349 70.7331 167.095C70.553 165.972 70.3868 164.892 70.2206 163.811C68.6694 154.139 67.7415 148.652 67.7276 148.596C67.7415 148.652 69.0018 154.07 70.5669 163.755C70.7331 164.822 70.9132 165.917 71.0794 167.039C71.7442 171.293 72.4921 176.115 73.6001 181.353C73.697 181.81 73.6416 182.365 73.6001 182.891C73.5585 183.418 73.5031 183.944 73.6001 184.374C73.9048 185.746 74.2234 187.145 74.5419 188.531C74.8328 189.778 75.1375 191.025 75.4283 192.244C77.3951 200.17 79.4726 207.833 81.7717 214.151H81.6609Z" fill="#2F2C60"/>
<path d="M83.5723 84.5659C83.5723 84.5659 83.503 88.224 82.2426 90.8983C82.2426 90.8983 77.5059 89.6373 76.0931 89.0276C75.4145 88.7367 73.8494 87.2817 73.8494 87.2817C73.8494 87.2817 75.8992 84.0532 76.5086 79.8547C77.1319 75.6562 83.5723 84.5659 83.5723 84.5659Z" fill="#DCABB0"/>
<path d="M85.9129 85.3557C85.9129 85.3557 76.0793 85.7991 75.8854 79.6745C75.7053 73.5361 74.3064 69.4624 80.5806 68.922C86.8547 68.3816 88.1428 70.6817 88.7106 72.7048C89.2647 74.7417 88.4613 85.0924 85.9129 85.3557Z" fill="#DCABB0"/>
<path d="M68.434 86.8799C68.434 86.8799 55.5117 100.376 50.3179 110.949C50.3179 110.949 52.9078 119.221 64.5974 131.706C64.5974 131.706 64.7636 130.652 65.2484 127.687C65.3454 127.105 60.8994 116.907 56.9383 111.226C56.9383 111.226 66.1487 105.406 68.5725 100.639C71.0101 95.8589 68.434 86.8799 68.434 86.8799Z" fill="#DCABB0"/>
<path d="M76.0654 80.8939C76.0654 80.8939 80.7191 72.58 88.4891 72.0674C88.4891 72.0674 91.9101 70.6956 91.9101 68.8527C91.9101 68.8527 80.8576 65.5964 76.841 68.8527C70.8162 73.7301 76.0654 80.8939 76.0654 80.8939Z" fill="#373482"/>
<path d="M113.724 117.877C112.242 118.168 112.824 118.265 110.733 118.625C108.641 118.999 106.799 120.26 106.356 121.715L90.8713 122.145C92.0901 116.63 91.9932 95.8727 91.1483 94.1822C90.3035 92.5056 82.2565 90.8844 82.2565 90.8844L80.2759 100.612C80.2759 100.612 82.7413 125.151 85.0681 127.465C87.4088 129.779 108.738 123.835 108.738 123.835C108.738 123.835 113.226 124.265 114.735 119.553C114.735 119.567 115.206 117.586 113.724 117.877Z" fill="#DCABB0"/>
<path d="M64.9853 86.8799C64.9853 86.8799 50.4979 106.057 49.3761 110.893C49.3761 110.893 49.8608 112.209 53.0048 116.491L58.4479 113.526C58.4479 113.526 57.5477 111.683 57.3538 111.392C57.3538 111.392 57.243 111.281 57.8662 110.949C58.4756 110.616 61.5227 108.551 61.5227 108.551L64.9853 86.8799Z" fill="#3B76CA"/>
<path d="M55.8302 136.763C57.6723 140.477 77.8382 142.153 79.0986 141.46C80.359 140.754 79.4726 136.07 79.6526 134.103C80.0543 129.766 82.2011 124.763 82.7135 123.156C82.7689 122.962 82.8105 122.851 82.8105 122.851C82.852 124.888 85.3728 128.366 85.3728 128.366C90.1788 128.837 98.9044 126.592 98.9044 126.592C98.8767 126.398 98.849 126.204 98.8352 126.024C98.6413 123.71 99.3476 121.826 99.3476 121.826C98.5997 121.77 93.5305 121.812 92.1594 121.826C91.9793 121.826 91.827 121.673 91.827 121.479L92.6164 113.872C94.32 98.6024 91.3422 93.1291 91.3422 93.1291C89.0015 91.2585 82.6027 89.8175 82.6027 89.8175C77.3258 89.4711 73.8632 87.2956 73.8632 87.2956C73.8632 87.2956 66.2872 86.4503 64.9852 86.8799C63.6833 87.3094 61.218 102.621 60.6501 108.635C60.0823 114.648 56.6059 129.502 55.8302 131.692C54.5976 135.086 55.5394 136.195 55.8302 136.763Z" fill="#699DEE"/>
<path opacity="0.2" d="M82.8105 122.837C82.852 124.874 85.3728 128.352 85.3728 128.352C90.1788 128.823 98.9044 126.579 98.9044 126.579C98.8767 126.385 98.849 126.191 98.8352 126.011C97.2286 126.191 87.6719 127.188 86.5501 126.509C86.5501 126.509 82.7135 123.004 82.2426 104.006L82.8105 122.837Z" fill="#A1431F"/>
<path d="M11.7727 219.694H5.9833H1.06647C0.484758 219.694 0 220.179 0 220.775C0 221.371 0.484758 221.855 1.06647 221.855H5.99715H11.7727H395.008H395.327H401.934C402.515 221.855 403 221.371 403 220.775C403 220.179 402.515 219.68 401.934 219.68H395.327H395.008" fill="#699FF0"/>
<path d="M228.404 32.9091C228.404 32.9091 288.556 22.1426 332.115 33.0338C332.115 33.0338 343.873 130.625 280.342 157.589C280.342 157.575 217.947 134.505 228.404 32.9091Z" fill="white"/>
<path d="M235.329 39.1306C235.329 39.1306 290.495 32.0499 324.178 39.1306C324.178 39.1306 335.425 118.389 280.966 147.696C280.966 147.696 231.077 133.548 235.329 39.1306Z" fill="#699FF0"/>
<path d="M339.15 107.18C341.782 104.561 341.45 84.2333 341.477 82.9862C341.56 79.3974 342.918 77.9009 342.918 77.9009C347.461 75.2128 354.94 75.0326 357.793 82.2934C359.621 86.9492 364.275 95.9974 364.275 95.9974C383.333 122.463 375.757 135.516 375.757 135.516L374.939 135.433C375.216 134.56 375.438 133.341 375.161 132.828L374.385 135.419L360.3 133.604C360.189 130.902 359.109 126.676 359.109 126.676L359.039 133.839L357.156 133.936C357.904 118.833 354.69 111.406 353.749 109.563C354.566 117.96 350.494 131.664 350.494 131.664L349.912 131.539L351.228 124.694L349.538 131.456L347.904 131.082C348.167 130.167 348.402 129.281 348.624 128.408C348.167 130.084 347.904 131.082 347.904 131.082C344.4 127.258 337.973 127.604 337.973 127.604C334.483 122.685 339.15 107.18 339.15 107.18Z" fill="#2B478B"/>
<path d="M337.613 209.149L333.5 217.352L330.162 216.064L330.923 207.694L337.613 209.149Z" fill="#DCABB0"/>
<path d="M334.954 215.966L333.832 219.666H322.724C322.724 219.666 325.563 214.664 334.954 215.966Z" fill="#2C3A64"/>
<path d="M337.973 137.761L329.192 209.676H338.5C338.5 209.676 350.646 178.568 352.391 146.158C353.056 133.784 337.973 137.761 337.973 137.761Z" fill="#35488B"/>
<path d="M360.397 209.8L358.485 216.479L354.926 216.05L354.136 205.824L360.397 209.8Z" fill="#DCABB0"/>
<path d="M358.818 215.966L357.696 219.666H346.588C346.588 219.666 349.427 214.664 358.818 215.966Z" fill="#2C3A64"/>
<path d="M349.995 138.745H356.893L364.289 137.705C364.289 137.705 369.025 148.042 366.588 178.693C365.355 194.267 360.743 210.826 360.743 210.826L351.2 210.632L347.087 153.474C346.962 151.908 345.148 151.34 345.148 151.34L345.411 138.551L349.995 138.745Z" fill="#35488B"/>
<path d="M357.267 209.454C358.555 202.54 359.677 194.35 360.411 185.801C360.521 184.499 360.632 183.154 360.729 181.81C360.84 180.328 360.937 178.817 361.02 177.349C361.048 176.836 360.923 176.254 360.798 175.686C360.674 175.159 360.563 174.619 360.577 174.175C360.868 168.55 360.881 163.395 360.895 158.85C360.895 157.659 360.909 156.495 360.909 155.345C360.978 145.008 361.062 139.16 361.062 139.105C361.062 139.16 360.632 144.994 360.563 155.331C360.549 156.481 360.549 157.645 360.549 158.836C360.535 163.381 360.521 168.522 360.231 174.134C360.203 174.619 360.327 175.201 360.452 175.741C360.577 176.282 360.701 176.836 360.674 177.293C360.591 178.776 360.48 180.272 360.383 181.755C360.286 183.099 360.175 184.443 360.064 185.746C359.344 194.281 358.458 202.553 357.17 209.454H357.267Z" fill="#373482"/>
<path d="M347.239 91.5911C347.239 91.5911 348.333 97.9373 344.386 100.944C344.386 100.944 346.089 104.63 347.225 105.212C348.499 105.849 351.851 105.863 352.931 104.935C354.053 103.979 355.064 99.42 355.064 99.42C355.064 99.42 354.206 95.4709 354.372 89.4295L347.239 91.5911Z" fill="#CC96A0"/>
<path d="M345.84 93.4063C345.84 93.4063 354.552 93.8081 354.718 88.3764C354.884 82.9447 356.117 79.342 350.563 78.857C345.009 78.372 343.873 80.4089 343.375 82.2103C342.876 84.0116 343.583 93.1707 345.84 93.4063Z" fill="#DCABB0"/>
<path d="M337.973 137.761C337.973 137.761 339.123 138.717 350.66 139.285C351.408 139.327 352.128 139.34 352.793 139.368C356.934 139.465 359.718 139.174 361.546 138.814C364.025 138.329 364.76 137.705 364.76 137.705C364.76 137.705 361.158 129.017 361.158 124.888C361.158 122.034 354.718 98.9073 354.718 98.9073C353.956 100.986 351.934 102.759 349.691 102.787C343.846 102.829 346.131 98.9073 346.131 98.9073L339.552 101.554C339.552 101.554 340.369 103.993 340.065 106.362C339.982 106.972 339.829 107.581 339.566 108.136C339.511 108.26 339.441 108.385 339.372 108.496C337.779 111.212 338.873 115.937 340.037 121.396C341.214 126.856 337.973 137.761 337.973 137.761Z" fill="#35488B"/>
<path d="M339.566 101.54C339.566 101.54 332.627 113.221 329.192 122.034C329.192 122.034 320.799 118.542 316.007 116.533C315.757 116.422 315.508 116.325 315.273 116.228L313.708 115.563C313.708 115.563 313.348 111.919 309.359 111.461C309.359 111.461 307.71 111.392 308.181 112.528C308.652 113.664 308.625 113.179 309.248 114.787C309.871 116.408 311.159 117.669 312.392 117.794C312.392 117.794 312.932 118.209 313.818 118.874C314.082 119.068 314.372 119.29 314.705 119.526C318.694 122.477 326.699 128.103 329.192 127.826C332.572 127.452 342.142 113.706 342.142 113.706L339.566 101.54Z" fill="#DCABB0"/>
<path d="M323.347 125.733C323.347 125.733 327.904 128.02 328.804 128.02C329.705 128.02 332.156 126.828 334.746 123.752C335.868 122.408 337.516 120.302 339.012 118.348C340.951 115.812 342.641 113.54 342.613 113.47C342.571 113.346 341.671 100.695 341.671 100.695C341.671 100.695 339.511 101.291 339.358 101.429C339.206 101.582 330.73 116.782 329.22 121.272L324.165 119.761L323.347 125.733Z" fill="#DCE1F1"/>
<path d="M347.461 119.013L346.38 167.649H333.971C333.971 167.649 336.685 140.047 337.987 131.415C339.469 121.521 339.372 101.429 339.372 101.429C339.372 101.429 344.469 99.3507 344.857 99.42C345.231 99.4754 347.461 119.013 347.461 119.013Z" fill="#DCE1F1"/>
<path d="M346.159 98.8934C346.159 98.8934 348.222 115.022 347.475 119.013L344.22 108.136L344.954 106.833L343.61 106.417L344.455 99.5724C344.441 99.5585 344.995 98.8934 346.159 98.8934Z" fill="#CDD2EA"/>
<path d="M348.666 119.512V167.649C348.666 167.649 356.56 167.511 362.654 167.303C366.491 167.178 369.621 167.039 369.621 166.887C369.621 166.541 367.46 146.851 363.499 132.606C362.613 129.433 362.308 126.135 362.599 122.865C362.89 119.65 363.305 115.881 363.804 114.136C363.804 114.122 363.818 114.108 363.818 114.094C363.818 114.094 371.283 120.108 371.089 120.399C370.895 120.676 369.053 125.692 369.053 125.692C369.053 125.692 372.557 128.228 373.277 128.588C373.277 128.588 379.787 119.817 378.887 118.417C378.887 118.417 367.543 99.129 364.967 99.9327C364.233 100.168 356.616 99.42 356.616 99.42L348.666 119.512Z" fill="#DCE1F1"/>
<path d="M355.064 99.42C354.746 99.7387 348.666 119.512 348.666 119.512C348.666 119.512 354.247 109.979 354.663 109.771L354.039 108.593L355.383 107.914L356.602 99.4061C356.602 99.42 355.577 98.8934 355.064 99.42Z" fill="#CDD2EA"/>
<path d="M343.458 80.1595C343.458 80.1595 354.136 88.3902 353.195 94.4732C352.308 100.182 353.984 100.695 355.244 101.235C358.472 102.635 363.735 99.8495 365.41 99.9327C366.602 99.9881 362.502 98.7687 360.563 96.1776C355.383 89.2493 355.882 79.8963 354.857 79.2311C347.793 74.6447 343.458 80.1595 343.458 80.1595Z" fill="#2B478B"/>
<path d="M323.223 119.068C323.223 119.068 322.322 124.86 321.879 125.803L323.458 126.606C323.458 126.606 324.4 120.62 324.151 119.526L323.223 119.068Z" fill="#CDD2EA"/>
<path d="M359.122 139.701C359.953 142.86 361.851 159.862 362.654 167.303C366.491 167.178 369.621 167.039 369.621 166.887C369.621 166.541 367.46 146.851 363.499 132.606C362.613 129.433 362.308 126.135 362.599 122.865C362.89 119.65 363.305 115.881 363.804 114.136C363.264 113.664 362.627 113.373 362.266 113.678C361.463 114.357 358.042 135.641 359.122 139.701Z" fill="#CDD2EA"/>
<path d="M369.039 125.692C368.928 126.315 365.549 132.315 364.926 133.438C364.856 133.548 364.829 133.618 364.829 133.618L364.233 134.075C364.233 134.075 361.477 131.664 358.25 134.061C358.25 134.061 357.003 135.142 358.125 135.655C359.247 136.167 358.901 135.821 360.452 136.569C362.017 137.317 363.818 137.359 364.801 136.611L365.895 135.765C366.089 135.627 366.422 135.308 366.865 134.906C368.97 132.939 373.264 128.588 373.264 128.588L369.039 125.692Z" fill="#DCABB0"/>
<path d="M323.347 125.733C323.347 125.733 327.904 128.02 328.804 128.02C329.705 128.02 332.156 126.828 334.746 123.752C335.868 122.408 337.516 120.302 339.012 118.348C339.22 117.309 339.303 116.172 338.596 116.103C337.336 115.978 330.536 126.315 328.832 126.246C327.142 126.177 323.347 125.733 323.347 125.733Z" fill="#CDD2EA"/>
<path d="M369.15 125.401L373.984 128.422C373.984 128.422 373.347 129.114 373.333 129.073C373.305 129.031 368.97 125.9 368.97 125.9L369.15 125.401Z" fill="#CDD2EA"/>
<path d="M304.414 48.9696C300.024 44.2722 294.511 43.1776 289.858 43.3577C284.401 43.5794 283.459 45.5332 280.107 45.5332C276.755 45.5332 276.409 43.8427 271.52 43.4409C266.631 43.0252 260.55 43.8843 255.786 48.9696C253.528 51.3806 251.811 54.9971 251.811 60.0132C251.811 71.6941 257.434 82.0588 260.176 89.1394C262.905 96.22 261.783 119.083 268.376 119.083C274.969 119.083 274.65 101.97 275.606 94.0723C276.575 86.1741 280.107 86.0078 280.107 86.0078C280.107 86.0078 283.639 86.1741 284.608 94.0723C285.578 101.97 285.245 119.083 291.838 119.083C298.431 119.083 297.295 96.2062 300.037 89.1394C302.766 82.0588 308.403 71.6941 308.403 60.0132C308.389 54.9971 306.672 51.3806 304.414 48.9696Z" fill="#F9EFE8"/>
<path d="M259.388 52.3358C261.95 49.6061 265.219 48.2759 269.402 48.2759C269.956 48.2759 270.524 48.3036 271.105 48.3451C272.85 48.4976 273.612 48.8163 274.582 49.2319C275.8 49.7585 277.476 50.4652 280.108 50.4652C282.559 50.4652 284.263 49.8001 285.62 49.2597C286.839 48.7747 287.906 48.3728 290.052 48.2897C290.302 48.2759 290.551 48.2759 290.814 48.2759C294.997 48.2759 298.266 49.6061 300.828 52.3358C302.587 54.2064 303.473 56.7976 303.473 60.0123C303.473 68.4231 300.094 76.349 297.365 82.723C296.673 84.358 296.008 85.91 295.44 87.351C294.235 90.4549 293.75 95.0275 293.169 100.307C292.836 103.383 292.31 108.288 291.548 111.572V119.041C291.645 119.055 291.742 119.068 291.839 119.068C298.432 119.068 297.296 96.1914 300.038 89.1247C302.767 82.044 308.404 71.6794 308.404 59.9984C308.404 54.9685 306.686 51.3658 304.429 48.9548C300.038 44.2575 294.526 43.1628 289.872 43.343C284.415 43.5647 283.473 45.5184 280.122 45.5184C276.77 45.5184 276.424 43.8279 271.535 43.4261C266.645 43.0104 260.565 43.8695 255.801 48.9548C253.543 51.3658 251.826 54.9824 251.826 59.9984H256.756C256.743 56.7976 257.643 54.2203 259.388 52.3358Z" fill="#F4F4F4"/>
<path d="M280.107 45.5334C276.755 45.5334 276.409 43.843 271.52 43.4411C266.631 43.0254 260.55 43.8845 255.786 48.9698C253.528 51.3809 251.811 54.9974 251.811 60.0134H256.742C256.742 56.7987 257.628 54.2076 259.387 52.337C261.949 49.6072 265.218 48.277 269.401 48.277C269.955 48.277 270.523 48.3047 271.104 48.3463C272.849 48.4987 273.611 48.8174 274.581 49.2331C275.8 49.7597 277.475 50.4663 280.093 50.4663V45.5334H280.107Z" fill="white"/>
<path d="M289.858 43.3568C284.401 43.5785 283.459 45.5323 280.107 45.5323V86.007C280.107 86.007 283.639 86.1732 284.608 94.0714C285.578 101.97 285.245 119.082 291.838 119.082C298.431 119.082 297.295 96.2053 300.037 89.1385C302.766 82.0579 308.403 71.6932 308.403 60.0123C308.403 54.9824 306.686 51.3797 304.428 48.9687C300.024 44.2713 294.511 43.1767 289.858 43.3568Z" fill="white"/>
</g>
<path d="M72.5732 264.473C71.6416 264.965 70.4814 265.211 69.0928 265.211C67.2998 265.211 65.8643 264.634 64.7861 263.479C63.708 262.325 63.1689 260.811 63.1689 258.936C63.1689 256.92 63.7754 255.291 64.9883 254.049C66.2012 252.807 67.7393 252.186 69.6025 252.186C70.7979 252.186 71.7881 252.358 72.5732 252.704V254.277C71.6709 253.773 70.6748 253.521 69.585 253.521C68.1377 253.521 66.9629 254.005 66.0605 254.972C65.1641 255.938 64.7158 257.23 64.7158 258.848C64.7158 260.383 65.1348 261.607 65.9727 262.521C66.8164 263.43 67.9209 263.884 69.2861 263.884C70.5518 263.884 71.6475 263.603 72.5732 263.04V264.473ZM82.417 265H80.9756V259.814C80.9756 257.939 80.2783 257.002 78.8838 257.002C78.1807 257.002 77.5889 257.274 77.1084 257.819C76.6279 258.358 76.3877 259.053 76.3877 259.902V265H74.9463V251.676H76.3877V257.494H76.4229C77.1143 256.357 78.0986 255.789 79.376 255.789C81.4033 255.789 82.417 257.011 82.417 259.454V265ZM92.4189 265H90.9775V263.576H90.9424C90.3447 264.666 89.4189 265.211 88.165 265.211C86.0205 265.211 84.9482 263.934 84.9482 261.379V256H86.3809V261.15C86.3809 263.049 87.1074 263.998 88.5605 263.998C89.2637 263.998 89.8408 263.74 90.292 263.225C90.749 262.703 90.9775 262.023 90.9775 261.186V256H92.0498C92.3955 256 92.6826 255.897 92.9111 255.692C93.1455 255.481 93.2627 255.229 93.2627 254.937C93.2627 254.509 93.2041 254.125 93.0869 253.785H94.2646C94.376 254.113 94.4316 254.512 94.4316 254.98C94.4316 256.141 93.7607 256.826 92.4189 257.037V265ZM102.166 265H100.725V263.594H100.689C100.062 264.672 99.1396 265.211 97.9209 265.211C97.0244 265.211 96.3213 264.974 95.8115 264.499C95.3076 264.024 95.0557 263.395 95.0557 262.609C95.0557 260.928 96.0459 259.949 98.0264 259.674L100.725 259.296C100.725 257.767 100.106 257.002 98.8701 257.002C97.7861 257.002 96.8076 257.371 95.9346 258.109V256.633C96.8193 256.07 97.8389 255.789 98.9932 255.789C101.108 255.789 102.166 256.908 102.166 259.146V265ZM100.725 260.447L98.5537 260.746C97.8857 260.84 97.3818 261.007 97.042 261.247C96.7021 261.481 96.5322 261.9 96.5322 262.504C96.5322 262.943 96.6875 263.304 96.998 263.585C97.3145 263.86 97.7334 263.998 98.2549 263.998C98.9697 263.998 99.5586 263.749 100.021 263.251C100.49 262.747 100.725 262.111 100.725 261.344V260.447ZM115.956 264.587C115.265 265.003 114.444 265.211 113.495 265.211C112.212 265.211 111.175 264.795 110.384 263.963C109.599 263.125 109.206 262.041 109.206 260.711C109.206 259.229 109.631 258.039 110.48 257.143C111.33 256.24 112.464 255.789 113.882 255.789C114.673 255.789 115.37 255.936 115.974 256.229V257.705C115.306 257.236 114.591 257.002 113.829 257.002C112.909 257.002 112.153 257.333 111.562 257.995C110.976 258.651 110.683 259.516 110.683 260.588C110.683 261.643 110.958 262.475 111.509 263.084C112.065 263.693 112.81 263.998 113.741 263.998C114.526 263.998 115.265 263.737 115.956 263.216V264.587ZM121.897 265.211C120.567 265.211 119.504 264.792 118.707 263.954C117.916 263.11 117.521 261.994 117.521 260.605C117.521 259.094 117.934 257.913 118.76 257.063C119.586 256.214 120.702 255.789 122.108 255.789C123.45 255.789 124.496 256.202 125.246 257.028C126.002 257.854 126.38 259 126.38 260.465C126.38 261.9 125.973 263.052 125.158 263.919C124.35 264.78 123.263 265.211 121.897 265.211ZM122.003 257.002C121.077 257.002 120.345 257.318 119.806 257.951C119.267 258.578 118.997 259.445 118.997 260.553C118.997 261.619 119.27 262.46 119.814 263.075C120.359 263.69 121.089 263.998 122.003 263.998C122.935 263.998 123.649 263.696 124.147 263.093C124.651 262.489 124.903 261.631 124.903 260.518C124.903 259.393 124.651 258.525 124.147 257.916C123.649 257.307 122.935 257.002 122.003 257.002ZM124.112 251.412L121.81 254.295H120.693L122.653 251.412H124.112ZM133.815 265V259.366H132.409V258.004H133.815V252.396H137.296C141.737 252.396 143.958 254.444 143.958 258.54C143.958 260.497 143.34 262.064 142.104 263.242C140.873 264.414 139.224 265 137.155 265H133.815ZM135.292 253.732V258.004H138.245V259.366H135.292V263.664H137.173C138.825 263.664 140.111 263.222 141.031 262.337C141.951 261.452 142.411 260.198 142.411 258.575C142.411 255.347 140.694 253.732 137.261 253.732H135.292ZM153.925 253.785H155.103C155.214 254.113 155.27 254.512 155.27 254.98C155.27 256.105 154.628 256.785 153.345 257.02C154.106 257.846 154.487 258.994 154.487 260.465C154.487 261.9 154.08 263.052 153.266 263.919C152.457 264.78 151.37 265.211 150.005 265.211C148.675 265.211 147.611 264.792 146.814 263.954C146.023 263.11 145.628 261.994 145.628 260.605C145.628 259.094 146.041 257.913 146.867 257.063C147.693 256.214 148.81 255.789 150.216 255.789C150.497 255.789 150.89 255.83 151.394 255.912C151.751 255.971 152.249 256 152.888 256C153.233 256 153.521 255.897 153.749 255.692C153.983 255.481 154.101 255.229 154.101 254.937C154.101 254.509 154.042 254.125 153.925 253.785ZM150.11 257.002C149.185 257.002 148.452 257.318 147.913 257.951C147.374 258.578 147.104 259.445 147.104 260.553C147.104 261.619 147.377 262.46 147.922 263.075C148.467 263.69 149.196 263.998 150.11 263.998C151.042 263.998 151.757 263.696 152.255 263.093C152.759 262.489 153.011 261.631 153.011 260.518C153.011 259.393 152.759 258.525 152.255 257.916C151.757 257.307 151.042 257.002 150.11 257.002ZM150.049 267.76C149.809 267.76 149.604 267.675 149.434 267.505C149.264 267.335 149.179 267.13 149.179 266.89C149.179 266.649 149.267 266.447 149.442 266.283C149.618 266.125 149.82 266.046 150.049 266.046C150.289 266.046 150.494 266.125 150.664 266.283C150.834 266.447 150.919 266.649 150.919 266.89C150.919 267.13 150.834 267.335 150.664 267.505C150.494 267.675 150.289 267.76 150.049 267.76ZM161.176 264.912C160.836 265.1 160.388 265.193 159.831 265.193C158.255 265.193 157.467 264.314 157.467 262.557V257.23H155.92V256H157.467V253.803L158.908 253.337V256H161.176V257.23H158.908V262.302C158.908 262.905 159.011 263.336 159.216 263.594C159.421 263.852 159.761 263.98 160.235 263.98C160.599 263.98 160.912 263.881 161.176 263.682V264.912ZM177.005 265H174.948L170.079 259.234C169.897 259.018 169.786 258.871 169.745 258.795H169.71V265H168.233V252.396H169.71V258.32H169.745C169.827 258.191 169.938 258.048 170.079 257.89L174.79 252.396H176.627L171.222 258.443L177.005 265ZM185.952 265H184.511V259.814C184.511 257.939 183.813 257.002 182.419 257.002C181.716 257.002 181.124 257.274 180.644 257.819C180.163 258.358 179.923 259.053 179.923 259.902V265H178.481V251.676H179.923V257.494H179.958C180.649 256.357 181.634 255.789 182.911 255.789C184.938 255.789 185.952 257.011 185.952 259.454V265ZM195.119 265H193.678V263.594H193.643C193.016 264.672 192.093 265.211 190.874 265.211C189.978 265.211 189.274 264.974 188.765 264.499C188.261 264.024 188.009 263.395 188.009 262.609C188.009 260.928 188.999 259.949 190.979 259.674L193.678 259.296C193.678 257.767 193.06 257.002 191.823 257.002C190.739 257.002 189.761 257.371 188.888 258.109V256.633C189.772 256.07 190.792 255.789 191.946 255.789C194.062 255.789 195.119 256.908 195.119 259.146V265ZM193.678 260.447L191.507 260.746C190.839 260.84 190.335 261.007 189.995 261.247C189.655 261.481 189.485 261.9 189.485 262.504C189.485 262.943 189.641 263.304 189.951 263.585C190.268 263.86 190.687 263.998 191.208 263.998C191.923 263.998 192.512 263.749 192.975 263.251C193.443 262.747 193.678 262.111 193.678 261.344V260.447ZM193.871 251.412L191.568 254.295H190.452L192.412 251.412H193.871ZM210.614 265H209.173V259.832C209.173 258.836 209.018 258.115 208.707 257.67C208.402 257.225 207.887 257.002 207.16 257.002C206.545 257.002 206.021 257.283 205.587 257.846C205.159 258.408 204.945 259.082 204.945 259.867V265H203.504V259.656C203.504 257.887 202.821 257.002 201.456 257.002C200.823 257.002 200.302 257.269 199.892 257.802C199.481 258.329 199.276 259.018 199.276 259.867V265H197.835V256H199.276V257.424H199.312C199.95 256.334 200.882 255.789 202.106 255.789C202.722 255.789 203.258 255.962 203.715 256.308C204.172 256.647 204.485 257.096 204.655 257.652C205.323 256.41 206.319 255.789 207.644 255.789C209.624 255.789 210.614 257.011 210.614 259.454V265ZM225.749 265H224.308V259.867C224.308 257.957 223.61 257.002 222.216 257.002C221.495 257.002 220.897 257.274 220.423 257.819C219.954 258.358 219.72 259.041 219.72 259.867V265H218.278V256H219.72V257.494H219.755C220.435 256.357 221.419 255.789 222.708 255.789C223.692 255.789 224.445 256.108 224.967 256.747C225.488 257.38 225.749 258.297 225.749 259.498V265ZM234.916 265H233.475V263.594H233.439C232.812 264.672 231.89 265.211 230.671 265.211C229.774 265.211 229.071 264.974 228.562 264.499C228.058 264.024 227.806 263.395 227.806 262.609C227.806 260.928 228.796 259.949 230.776 259.674L233.475 259.296C233.475 257.767 232.856 257.002 231.62 257.002C230.536 257.002 229.558 257.371 228.685 258.109V256.633C229.569 256.07 230.589 255.789 231.743 255.789C233.858 255.789 234.916 256.908 234.916 259.146V265ZM233.475 260.447L231.304 260.746C230.636 260.84 230.132 261.007 229.792 261.247C229.452 261.481 229.282 261.9 229.282 262.504C229.282 262.943 229.438 263.304 229.748 263.585C230.064 263.86 230.483 263.998 231.005 263.998C231.72 263.998 232.309 263.749 232.771 263.251C233.24 262.747 233.475 262.111 233.475 261.344V260.447ZM232.938 254.295H231.822L229.52 251.412H230.996L232.938 254.295ZM241.394 265.211C240.063 265.211 239 264.792 238.203 263.954C237.412 263.11 237.017 261.994 237.017 260.605C237.017 259.094 237.43 257.913 238.256 257.063C239.082 256.214 240.198 255.789 241.604 255.789C242.946 255.789 243.992 256.202 244.742 257.028C245.498 257.854 245.876 259 245.876 260.465C245.876 261.9 245.469 263.052 244.654 263.919C243.846 264.78 242.759 265.211 241.394 265.211ZM241.499 257.002C240.573 257.002 239.841 257.318 239.302 257.951C238.763 258.578 238.493 259.445 238.493 260.553C238.493 261.619 238.766 262.46 239.311 263.075C239.855 263.69 240.585 263.998 241.499 263.998C242.431 263.998 243.146 263.696 243.644 263.093C244.147 262.489 244.399 261.631 244.399 260.518C244.399 259.393 244.147 258.525 243.644 257.916C243.146 257.307 242.431 257.002 241.499 257.002ZM260.8 265H259.358V263.471H259.323C258.655 264.631 257.624 265.211 256.229 265.211C255.099 265.211 254.193 264.81 253.514 264.007C252.84 263.198 252.503 262.1 252.503 260.711C252.503 259.223 252.878 258.03 253.628 257.134C254.378 256.237 255.377 255.789 256.625 255.789C257.844 255.789 258.743 256.275 259.323 257.248H259.358V254.436H256.449V253.258H259.358V251.676H260.8V253.258H261.995V254.436H260.8V265ZM259.358 260.931V259.604C259.358 258.877 259.118 258.262 258.638 257.758C258.157 257.254 257.548 257.002 256.81 257.002C255.931 257.002 255.239 257.324 254.735 257.969C254.231 258.613 253.979 259.504 253.979 260.641C253.979 261.678 254.22 262.498 254.7 263.102C255.187 263.699 255.837 263.998 256.651 263.998C257.448 263.998 258.099 263.708 258.603 263.128C259.106 262.548 259.358 261.815 259.358 260.931ZM270.995 265H269.554V263.576H269.519C268.921 264.666 267.995 265.211 266.741 265.211C264.597 265.211 263.524 263.934 263.524 261.379V256H264.957V261.15C264.957 263.049 265.684 263.998 267.137 263.998C267.84 263.998 268.417 263.74 268.868 263.225C269.325 262.703 269.554 262.023 269.554 261.186V256H270.626C270.972 256 271.259 255.897 271.487 255.692C271.722 255.481 271.839 255.229 271.839 254.937C271.839 254.509 271.78 254.125 271.663 253.785H272.841C272.952 254.113 273.008 254.512 273.008 254.98C273.008 256.141 272.337 256.826 270.995 257.037V265ZM281.981 253.785H283.159C283.271 254.113 283.326 254.512 283.326 254.98C283.326 256.105 282.685 256.785 281.401 257.02C282.163 257.846 282.544 258.994 282.544 260.465C282.544 261.9 282.137 263.052 281.322 263.919C280.514 264.78 279.427 265.211 278.062 265.211C276.731 265.211 275.668 264.792 274.871 263.954C274.08 263.11 273.685 261.994 273.685 260.605C273.685 259.094 274.098 257.913 274.924 257.063C275.75 256.214 276.866 255.789 278.272 255.789C278.554 255.789 278.946 255.83 279.45 255.912C279.808 255.971 280.306 256 280.944 256C281.29 256 281.577 255.897 281.806 255.692C282.04 255.481 282.157 255.229 282.157 254.937C282.157 254.509 282.099 254.125 281.981 253.785ZM278.167 257.002C277.241 257.002 276.509 257.318 275.97 257.951C275.431 258.578 275.161 259.445 275.161 260.553C275.161 261.619 275.434 262.46 275.979 263.075C276.523 263.69 277.253 263.998 278.167 263.998C279.099 263.998 279.813 263.696 280.312 263.093C280.815 262.489 281.067 261.631 281.067 260.518C281.067 259.393 280.815 258.525 280.312 257.916C279.813 257.307 279.099 257.002 278.167 257.002ZM278.105 267.76C277.865 267.76 277.66 267.675 277.49 267.505C277.32 267.335 277.235 267.13 277.235 266.89C277.235 266.649 277.323 266.447 277.499 266.283C277.675 266.125 277.877 266.046 278.105 266.046C278.346 266.046 278.551 266.125 278.721 266.283C278.891 266.447 278.976 266.649 278.976 266.89C278.976 267.13 278.891 267.335 278.721 267.505C278.551 267.675 278.346 267.76 278.105 267.76ZM291.192 264.587C290.501 265.003 289.681 265.211 288.731 265.211C287.448 265.211 286.411 264.795 285.62 263.963C284.835 263.125 284.442 262.041 284.442 260.711C284.442 259.229 284.867 258.039 285.717 257.143C286.566 256.24 287.7 255.789 289.118 255.789C289.909 255.789 290.606 255.936 291.21 256.229V257.705C290.542 257.236 289.827 257.002 289.065 257.002C288.146 257.002 287.39 257.333 286.798 257.995C286.212 258.651 285.919 259.516 285.919 260.588C285.919 261.643 286.194 262.475 286.745 263.084C287.302 263.693 288.046 263.998 288.978 263.998C289.763 263.998 290.501 263.737 291.192 263.216V264.587ZM302.486 264.912C302.146 265.1 301.698 265.193 301.142 265.193C299.565 265.193 298.777 264.314 298.777 262.557V257.23H297.23V256H298.777V253.803L300.219 253.337V256H302.486V257.23H300.219V262.302C300.219 262.905 300.321 263.336 300.526 263.594C300.731 263.852 301.071 263.98 301.546 263.98C301.909 263.98 302.223 263.881 302.486 263.682V264.912ZM310.854 265H309.412V263.594H309.377C308.75 264.672 307.827 265.211 306.608 265.211C305.712 265.211 305.009 264.974 304.499 264.499C303.995 264.024 303.743 263.395 303.743 262.609C303.743 260.928 304.733 259.949 306.714 259.674L309.412 259.296C309.412 257.767 308.794 257.002 307.558 257.002C306.474 257.002 305.495 257.371 304.622 258.109V256.633C305.507 256.07 306.526 255.789 307.681 255.789C309.796 255.789 310.854 256.908 310.854 259.146V265ZM309.412 260.447L307.241 260.746C306.573 260.84 306.069 261.007 305.729 261.247C305.39 261.481 305.22 261.9 305.22 262.504C305.22 262.943 305.375 263.304 305.686 263.585C306.002 263.86 306.421 263.998 306.942 263.998C307.657 263.998 308.246 263.749 308.709 263.251C309.178 262.747 309.412 262.111 309.412 261.344V260.447ZM307.654 267.76C307.414 267.76 307.209 267.675 307.039 267.505C306.869 267.335 306.784 267.13 306.784 266.89C306.784 266.649 306.872 266.447 307.048 266.283C307.224 266.125 307.426 266.046 307.654 266.046C307.895 266.046 308.1 266.125 308.27 266.283C308.439 266.447 308.524 266.649 308.524 266.89C308.524 267.13 308.439 267.335 308.27 267.505C308.1 267.675 307.895 267.76 307.654 267.76ZM317.331 265.211C316.001 265.211 314.938 264.792 314.141 263.954C313.35 263.11 312.954 261.994 312.954 260.605C312.954 259.094 313.367 257.913 314.193 257.063C315.02 256.214 316.136 255.789 317.542 255.789C318.884 255.789 319.93 256.202 320.68 257.028C321.436 257.854 321.813 259 321.813 260.465C321.813 261.9 321.406 263.052 320.592 263.919C319.783 264.78 318.696 265.211 317.331 265.211ZM317.437 257.002C316.511 257.002 315.778 257.318 315.239 257.951C314.7 258.578 314.431 259.445 314.431 260.553C314.431 261.619 314.703 262.46 315.248 263.075C315.793 263.69 316.522 263.998 317.437 263.998C318.368 263.998 319.083 263.696 319.581 263.093C320.085 262.489 320.337 261.631 320.337 260.518C320.337 259.393 320.085 258.525 319.581 257.916C319.083 257.307 318.368 257.002 317.437 257.002Z" fill="#85929B"/>
<defs>
<clipPath id="clip0">
<rect width="403" height="221.869" fill="white"/>
</clipPath>
</defs>
</svg>
